<?xml version="1.0" encoding="iso-8859-1"?>
<!-- Uploaded to: SVG Repo, www.svgrepo.com, Generator: SVG Repo Mixer Tools -->
<svg fill="#626262" height="800px" width="800px" version="1.1" id="Layer_1" xmlns="http://www.w3.org/2000/svg" xmlns:xlink="http://www.w3.org/1999/xlink" 
	 viewBox="0 0 512 512" xml:space="preserve">
<g>
	<g>
		<g>
			<path d="M12.804,179.2h51.197v106.536L21.876,398.071c-0.981,2.62-0.614,5.555,0.973,7.859c1.604,2.295,4.224,3.669,7.023,3.669
				h162.133h0.001h119.466c2.884,0,5.564-1.451,7.142-3.866c1.57-2.406,1.826-5.453,0.674-8.09l-59.688-136.429
				c-0.001-0.002-0.002-0.005-0.003-0.007l-0.042-0.097c-0.014-0.032-0.034-0.06-0.048-0.091c-0.013-0.028-0.027-0.055-0.04-0.082
				c-0.04-0.086-0.081-0.172-0.124-0.258c-0.093-0.183-0.194-0.362-0.299-0.537c-0.041-0.069-0.079-0.139-0.122-0.207
				c-0.015-0.023-0.025-0.048-0.04-0.07c-0.01-0.015-0.023-0.029-0.033-0.044c-0.176-0.266-0.367-0.521-0.571-0.765
				c-0.004-0.004-0.007-0.009-0.01-0.014c-0.031-0.036-0.063-0.07-0.094-0.106c-0.025-0.029-0.054-0.054-0.08-0.083
				c-0.152-0.17-0.309-0.336-0.474-0.493c-0.062-0.059-0.123-0.12-0.187-0.177c-0.047-0.042-0.095-0.082-0.143-0.123
				c-0.139-0.119-0.283-0.231-0.429-0.341c-0.086-0.064-0.169-0.131-0.257-0.192c-0.053-0.037-0.105-0.074-0.159-0.11
				c-0.046-0.031-0.095-0.057-0.142-0.086c-0.164-0.104-0.328-0.21-0.5-0.303c-0.006-0.003-0.013-0.006-0.019-0.009
				c-0.105-0.057-0.215-0.103-0.323-0.156c-0.069-0.033-0.136-0.068-0.205-0.099c-0.107-0.049-0.215-0.097-0.325-0.141
				c-0.085-0.034-0.172-0.063-0.258-0.095c-0.152-0.056-0.302-0.114-0.458-0.161c-0.025-0.008-0.052-0.012-0.077-0.02
				c-0.044-0.013-0.089-0.022-0.133-0.034c-0.101-0.028-0.201-0.054-0.303-0.078c-0.187-0.044-0.376-0.081-0.567-0.112
				c-0.075-0.012-0.148-0.027-0.223-0.038c-0.062-0.009-0.123-0.017-0.185-0.024c-0.319-0.037-0.643-0.06-0.972-0.061
				c-0.005,0-0.009-0.001-0.014-0.001H81.071c-0.001,0-0.002,0-0.003,0v-76.8h51.203c2.91,0,5.632-1.485,7.194-3.951
				c1.57-2.458,1.766-5.547,0.538-8.192l-59.733-128c-1.399-3.004-4.42-4.924-7.731-4.924c-3.319,0-6.34,1.92-7.74,4.924
				l-59.733,128c-1.229,2.645-1.033,5.734,0.538,8.192C7.172,177.715,9.886,179.2,12.804,179.2z M232.295,330.262l10.906-24.928
				v87.199h-38.15L232.295,330.262z M260.268,392.533v-87.207l38.147,87.207H260.268z M86.985,273.067h151.697l-52.267,119.467
				H42.185L86.985,273.067z M72.537,62.848l46.327,99.285H72.619c-0.029,0-0.056-0.004-0.085-0.004s-0.056,0.004-0.085,0.004H26.201
				L72.537,62.848z"/>
			<path d="M473.601,327.985c0-24.474-7.236-35.61-8.055-36.796c-2.116-3.072-5.999-4.395-9.557-3.285
				c-3.558,1.118-5.99,4.412-5.99,8.149c0,5.683-2.927,11.716-6.511,16.913c-2.33-7.859-5.197-13.397-5.393-13.79
				c-1.818-3.473-5.769-5.077-9.617-4.139c-3.806,0.93-6.511,4.54-6.511,8.465c-0.316,0.555-1.707,1.186-3.507,1.656
				c-0.452-4.574,0.64-12.476,2.901-19.243c0.913-2.756,0.375-5.786-1.434-8.047c-1.818-2.27-4.685-3.447-7.543-3.157
				c-23.475,2.449-41.182,20.079-41.182,41.02v4.275c0,10.41,2.78,20.252,7.645,28.679l-17.209,17.209
				c-4.838,4.838-7.501,11.264-7.501,18.108c0,6.835,2.662,13.261,7.501,18.099c4.992,4.992,11.537,7.484,18.099,7.484
				c6.554,0,13.107-2.492,18.099-7.484l26.64-26.64c1.417-0.003,2.815-0.071,4.198-0.182l26.831,26.823
				c4.992,4.992,11.537,7.484,18.099,7.484c6.554,0,13.107-2.492,18.099-7.484c4.83-4.838,7.501-11.264,7.501-18.099
				c0-6.844-2.671-13.269-7.501-18.099l-21.154-21.154C472.522,339.558,473.601,333.916,473.601,327.985z M388.268,315.731
				c0-8.422,5.333-15.974,13.508-20.326c-1.05,8.482-0.606,18.483,5.248,24.772c1.587,1.707,3.806,2.688,6.135,2.714
				c1.545,0.051,8.329-0.085,14.558-2.961c0.956,3.686,1.681,7.834,1.681,11.955c0,3.319,1.929,6.34,4.932,7.74
				c3.004,1.391,6.554,0.93,9.097-1.212c1.229-1.041,7.339-6.34,13.039-14.182c0.043,1.203,0.068,2.458,0.068,3.755
				c0,4.784-1.079,9.262-3.015,13.239c-0.286,0.364-0.554,0.743-0.78,1.155c-4.514,8.209-12.681,13.841-22.417,15.471
				c-0.448,0.074-0.881,0.191-1.303,0.332c-1.963,0.236-3.99,0.305-6.065,0.199c-0.375-0.11-0.756-0.199-1.14-0.259
				c-0.145-0.017-0.836-0.111-0.973-0.128l-1.749-0.145c-0.58-0.034-1.169-0.06-1.741-0.171h-0.009
				c-0.703-0.142-1.396-0.313-2.084-0.498c-0.335-0.09-0.672-0.178-1.003-0.278c-0.031-0.009-0.062-0.021-0.093-0.03
				c-2.984-0.913-5.795-2.225-8.386-3.875c-0.255-0.163-0.505-0.333-0.756-0.503c-0.146-0.098-0.293-0.194-0.438-0.294
				c-2.958-2.074-5.641-4.643-7.985-7.671c-0.155-0.201-0.322-0.39-0.493-0.575c-4.927-6.612-7.837-14.971-7.837-23.947V315.731z
				 M385.769,390.036c-3.337,3.319-8.738,3.328-12.066-0.009c-1.621-1.604-2.5-3.746-2.5-6.025c0-2.278,0.879-4.42,2.5-6.033
				l15.911-15.92c4.337,3.916,9.307,7.106,14.748,9.393L385.769,390.036z M479.637,377.97c1.613,1.613,2.5,3.755,2.5,6.033
				s-0.888,4.42-2.5,6.033c-3.337,3.319-8.738,3.319-12.066,0l-20.002-20.002c5.236-2.642,9.885-6.163,13.756-10.376L479.637,377.97
				z"/>
			<path d="M379.735,179.2c37.641,0,68.267-30.626,68.267-68.267c0-37.641-30.626-68.267-68.267-68.267
				s-68.267,30.626-68.267,68.267C311.468,148.574,342.094,179.2,379.735,179.2z M379.735,59.733c28.237,0,51.2,22.963,51.2,51.2
				s-22.963,51.2-51.2,51.2c-28.237,0-51.2-22.963-51.2-51.2S351.498,59.733,379.735,59.733z"/>
			<path d="M379.735,34.133c4.719,0,8.533-3.823,8.533-8.533V8.533c0-4.71-3.814-8.533-8.533-8.533s-8.533,3.823-8.533,8.533V25.6
				C371.201,30.31,375.016,34.133,379.735,34.133z"/>
			<path d="M388.268,213.333v-17.067c0-4.71-3.814-8.533-8.533-8.533s-8.533,3.823-8.533,8.533v17.067
				c0,4.71,3.814,8.533,8.533,8.533S388.268,218.044,388.268,213.333z"/>
			<path d="M456.535,110.933c0,4.71,3.814,8.533,8.533,8.533h17.067c4.719,0,8.533-3.823,8.533-8.533s-3.814-8.533-8.533-8.533
				h-17.067C460.349,102.4,456.535,106.223,456.535,110.933z"/>
			<path d="M277.335,119.467h17.067c4.719,0,8.533-3.823,8.533-8.533s-3.814-8.533-8.533-8.533h-17.067
				c-4.719,0-8.533,3.823-8.533,8.533S272.616,119.467,277.335,119.467z"/>
			<path d="M313.36,56.625c1.664,1.664,3.849,2.5,6.033,2.5c2.185,0,4.369-0.836,6.033-2.5c3.337-3.337,3.337-8.73,0-12.066
				L313.36,32.492c-3.337-3.337-8.73-3.337-12.066,0s-3.337,8.73,0,12.066L313.36,56.625z"/>
			<path d="M452.143,191.875c2.185,0,4.369-0.836,6.033-2.5c3.337-3.337,3.337-8.73,0-12.066l-12.066-12.066
				c-3.336-3.337-8.73-3.337-12.066,0c-3.336,3.336-3.336,8.73,0,12.066l12.066,12.066
				C447.774,191.039,449.959,191.875,452.143,191.875z"/>
			<path d="M440.076,59.125c2.185,0,4.369-0.836,6.033-2.5l12.066-12.066c3.337-3.337,3.337-8.73,0-12.066s-8.73-3.337-12.066,0
				l-12.066,12.066c-3.337,3.336-3.337,8.73,0,12.066C435.707,58.289,437.892,59.125,440.076,59.125z"/>
			<path d="M313.359,165.243l-12.066,12.066c-3.337,3.337-3.337,8.73,0,12.066c1.664,1.664,3.849,2.5,6.033,2.5
				c2.185,0,4.369-0.836,6.033-2.5l12.066-12.066c3.337-3.337,3.337-8.73,0-12.066C322.089,161.906,316.695,161.906,313.359,165.243
				z"/>
			<path d="M46.935,494.933H12.801c-4.719,0-8.533,3.823-8.533,8.533S8.082,512,12.801,512h34.133c4.719,0,8.533-3.823,8.533-8.533
				S51.654,494.933,46.935,494.933z"/>
			<path d="M89.601,460.8H55.468c-4.719,0-8.533,3.823-8.533,8.533s3.814,8.533,8.533,8.533h34.133c4.719,0,8.533-3.823,8.533-8.533
				S94.32,460.8,89.601,460.8z"/>
			<path d="M140.801,494.933h-34.133c-4.719,0-8.533,3.823-8.533,8.533s3.814,8.533,8.533,8.533h34.133
				c4.719,0,8.533-3.823,8.533-8.533S145.52,494.933,140.801,494.933z"/>
			<path d="M192.001,460.8h-34.133c-4.719,0-8.533,3.823-8.533,8.533s3.814,8.533,8.533,8.533h34.133
				c4.719,0,8.533-3.823,8.533-8.533S196.72,460.8,192.001,460.8z"/>
			<path d="M243.201,494.933h-34.133c-4.719,0-8.533,3.823-8.533,8.533s3.814,8.533,8.533,8.533h34.133
				c4.719,0,8.533-3.823,8.533-8.533S247.92,494.933,243.201,494.933z"/>
			<path d="M294.401,460.8h-34.133c-4.719,0-8.533,3.823-8.533,8.533s3.814,8.533,8.533,8.533h34.133
				c4.719,0,8.533-3.823,8.533-8.533S299.12,460.8,294.401,460.8z"/>
			<path d="M209.068,426.667c-4.719,0-8.533,3.823-8.533,8.533s3.814,8.533,8.533,8.533h34.133c4.719,0,8.533-3.823,8.533-8.533
				s-3.814-8.533-8.533-8.533H209.068z"/>
			<path d="M106.668,426.667c-4.719,0-8.533,3.823-8.533,8.533s3.814,8.533,8.533,8.533h34.133c4.719,0,8.533-3.823,8.533-8.533
				s-3.814-8.533-8.533-8.533H106.668z"/>
			<path d="M12.801,443.733h34.133c4.719,0,8.533-3.823,8.533-8.533s-3.814-8.533-8.533-8.533H12.801
				c-4.719,0-8.533,3.823-8.533,8.533S8.082,443.733,12.801,443.733z"/>
			<path d="M302.935,435.2c0,4.71,3.814,8.533,8.533,8.533h34.133c4.719,0,8.533-3.823,8.533-8.533s-3.814-8.533-8.533-8.533
				h-34.133C306.749,426.667,302.935,430.49,302.935,435.2z"/>
			<path d="M345.601,494.933h-34.133c-4.719,0-8.533,3.823-8.533,8.533s3.814,8.533,8.533,8.533h34.133
				c4.719,0,8.533-3.823,8.533-8.533S350.32,494.933,345.601,494.933z"/>
			<path d="M396.801,460.8h-34.133c-4.719,0-8.533,3.823-8.533,8.533s3.814,8.533,8.533,8.533h34.133
				c4.719,0,8.533-3.823,8.533-8.533S401.52,460.8,396.801,460.8z"/>
			<path d="M448.001,426.667h-34.133c-4.719,0-8.533,3.823-8.533,8.533s3.814,8.533,8.533,8.533h34.133
				c4.719,0,8.533-3.823,8.533-8.533S452.72,426.667,448.001,426.667z"/>
			<path d="M448.001,494.933h-34.133c-4.719,0-8.533,3.823-8.533,8.533s3.814,8.533,8.533,8.533h34.133
				c4.719,0,8.533-3.823,8.533-8.533S452.72,494.933,448.001,494.933z"/>
			<path d="M499.201,460.8h-34.133c-4.719,0-8.533,3.823-8.533,8.533s3.814,8.533,8.533,8.533h34.133
				c4.719,0,8.533-3.823,8.533-8.533S503.92,460.8,499.201,460.8z"/>
		</g>
	</g>
</g>
</svg>