<?xml version="1.0" encoding="iso-8859-1"?>
<!-- Uploaded to: SVG Repo, www.svgrepo.com, Generator: SVG Repo Mixer Tools -->
<!DOCTYPE svg PUBLIC "-//W3C//DTD SVG 1.1//EN" "http://www.w3.org/Graphics/SVG/1.1/DTD/svg11.dtd">
<svg fill="#626262" height="800px" width="800px" version="1.1" id="Capa_1" xmlns="http://www.w3.org/2000/svg" xmlns:xlink="http://www.w3.org/1999/xlink" 
	 viewBox="0 0 448.479 448.479" xml:space="preserve">
<g>
	<path d="M440.979,360.313c-9.953,0-15.276,3.438-19.554,6.2c-3.543,2.289-5.884,3.8-11.415,3.8s-7.872-1.512-11.415-3.8
		c-4.277-2.762-9.6-6.2-19.553-6.2s-15.275,3.438-19.552,6.2c-3.296,2.129-5.554,3.583-10.303,3.777
		c-29.277-35.747-71.61-56.946-117.554-59.006c-1.661-63.164-24.781-123.881-65.578-172.028c0.03-1.502,0.046-3.037,0.04-4.625
		l72.547,12.146c0.412,0.069,0.826,0.103,1.238,0.103c1.694,0,3.353-0.574,4.692-1.649c1.667-1.337,2.685-3.321,2.797-5.454
		c1.015-19.167-14.898-46.216-37.014-62.919C193.991,64.496,177.3,60.315,163.363,65.09c-2.695,0.923-5.25,2.056-7.673,3.371
		c-6.51-2.498-13.362-3.78-20.432-3.78c-23.044,0-43.7,13.823-52.62,34.785c-2.623,0.829-5.207,1.877-7.737,3.172
		c-13.116,6.71-21.704,21.619-24.182,41.98c-3.348,27.511,5.057,57.747,19.549,70.331c1.372,1.191,3.12,1.837,4.917,1.837
		c0.315,0,0.632-0.02,0.948-0.06c2.12-0.271,4.023-1.432,5.233-3.192l29.802-43.368c6.667,8.138,18.168,18.985,33.729,21.814
		c0.446,0.081,0.895,0.121,1.342,0.121c1.525,0,3.027-0.466,4.296-1.352c0.479-0.334,1.268-0.961,2.24-1.98
		c9.963,20.79,28.35,68.517,23.401,129.581c-29.829,9.243-56.517,27.07-76.885,51.94c-4.761-0.19-7.021-1.646-10.32-3.777
		c-4.275-2.762-9.598-6.2-19.55-6.2s-15.274,3.438-19.55,6.2c-3.542,2.288-5.883,3.8-11.41,3.8c-5.528,0-7.868-1.512-11.411-3.8
		c-4.276-2.762-9.598-6.2-19.55-6.2c-4.143,0-7.5,3.358-7.5,7.5s3.357,7.5,7.5,7.5c5.528,0,7.868,1.512,11.411,3.8
		c4.276,2.762,9.598,6.2,19.55,6.2c9.951,0,15.273-3.438,19.549-6.2c3.543-2.288,5.883-3.8,11.411-3.8s7.868,1.512,11.411,3.8
		c4.275,2.762,9.598,6.2,19.549,6.2c9.952,0,15.273-3.438,19.55-6.2c3.543-2.288,5.883-3.8,11.411-3.8
		c5.529,0,7.869,1.512,11.412,3.8c4.276,2.763,9.599,6.2,19.551,6.2s15.274-3.438,19.551-6.2c3.543-2.288,5.883-3.8,11.412-3.8
		c5.528,0,7.868,1.512,11.41,3.8c4.275,2.762,9.598,6.2,19.549,6.2s15.273-3.438,19.549-6.2c3.542-2.288,5.882-3.8,11.41-3.8
		c5.529,0,7.87,1.512,11.413,3.8c4.276,2.762,9.599,6.2,19.551,6.2s15.274-3.438,19.551-6.2c3.543-2.288,5.883-3.8,11.412-3.8
		s7.87,1.512,11.413,3.8c4.276,2.762,9.599,6.2,19.552,6.2s15.275-3.438,19.552-6.2c3.543-2.289,5.884-3.8,11.413-3.8
		c5.53,0,7.871,1.512,11.414,3.8c4.277,2.762,9.6,6.2,19.554,6.2c9.953,0,15.276-3.438,19.553-6.2c3.544-2.289,5.885-3.8,11.416-3.8
		c4.143,0,7.5-3.358,7.5-7.5S445.121,360.313,440.979,360.313z M168.223,79.281c12.244-4.19,25.99,4.181,33.094,9.546
		c14.563,10.999,26.511,27.96,30.041,41.521l-88.245-14.775C144.25,105.526,148.956,85.879,168.223,79.281z M135.259,79.681
		c2.125,0,4.22,0.167,6.285,0.474c-4.273,5.192-7.652,11.413-10.029,18.582c-1.025,3.091-1.771,6.086-2.315,8.845
		c-2.363-1.525-5.034-3.069-7.97-4.479c-6.813-3.272-13.639-5.163-20.345-5.695C108.662,86.488,121.372,79.681,135.259,79.681z
		 M74.609,196.882c-7.302-11.959-11.203-32.336-8.999-50.452c1.075-8.837,4.6-24.543,16.123-30.438
		c4.891-2.502,9.995-3.753,15.279-3.753c5.593,0,11.388,1.401,17.341,4.203c4.468,2.103,8.223,4.638,10.923,6.709L74.609,196.882z
		 M143.513,176.177c-11.232-3.736-19.511-13.56-23.409-19.013l18.633-27.115l12.333,2.065
		C151.5,159.206,146.391,171.46,143.513,176.177z M161.368,172.661c1.055-3.323,2.013-7.224,2.791-11.771
		c32.567,43.339,50.954,95.9,52.467,150.402c-8.521,0.394-16.918,1.438-25.129,3.119
		C196.137,240.068,168.969,186.143,161.368,172.661z M297.562,366.513c-3.543,2.288-5.883,3.8-11.412,3.8s-7.869-1.512-11.412-3.8
		c-4.276-2.762-9.599-6.2-19.552-6.2c-9.951,0-15.273,3.438-19.549,6.2c-3.542,2.288-5.882,3.8-11.41,3.8s-7.868-1.512-11.41-3.8
		c-4.275-2.762-9.598-6.2-19.549-6.2c-9.952,0-15.274,3.438-19.551,6.2c-3.543,2.288-5.883,3.8-11.412,3.8s-7.869-1.512-11.412-3.8
		c-4.276-2.763-9.599-6.2-19.551-6.2c-0.437,0-0.854,0.015-1.274,0.028c26.133-22.013,59.172-34.239,94.171-34.239
		c34.999,0,68.038,12.226,94.172,34.24c-0.427-0.013-0.853-0.028-1.299-0.028C307.16,360.313,301.838,363.75,297.562,366.513z"/>
	<path d="M274.753,228.879c0.151,11.726,9.724,21.223,21.486,21.223h76c8.547,0,15.5-6.953,15.5-15.5c0-0.276,0.225-0.5,0.5-0.5h12
		c11.855,0,21.5-9.645,21.5-21.5s-9.645-21.5-21.5-21.5h-43.355c0.078-1.163,0.125-2.33,0.125-3.5c0-28.397-23.103-51.5-51.5-51.5
		s-51.5,23.103-51.5,51.5C254.009,204.092,261.692,219.183,274.753,228.879z M406.739,212.601c0,3.584-2.916,6.5-6.5,6.5h-12
		c-8.547,0-15.5,6.953-15.5,15.5c0,0.276-0.225,0.5-0.5,0.5h-76c-3.584,0-6.5-2.916-6.5-6.5s2.916-6.5,6.5-6.5h12
		c8.547,0,15.5-6.953,15.5-15.5c0-0.276,0.225-0.5,0.5-0.5h76C403.823,206.101,406.739,209.017,406.739,212.601z M305.509,151.101
		c20.126,0,36.5,16.374,36.5,36.5c0,1.174-0.073,2.34-0.184,3.5h-17.586c-8.547,0-15.5,6.953-15.5,15.5c0,0.276-0.225,0.5-0.5,0.5
		h-12c-6.264,0-11.894,2.709-15.827,6.998c-7.237-6.815-11.404-16.278-11.404-26.498
		C269.009,167.475,285.383,151.101,305.509,151.101z"/>
</g>
</svg>