<svg width="40" height="40" viewBox="0 0 40 40" fill="none" xmlns="http://www.w3.org/2000/svg">
<g clip-path="url(#clip0_5_7)">
<path d="M20.1425 -0.0137501C11.9438 -0.0137501 5 6.97 5 15.2413C5 23.9038 13.0488 32.7625 18.4625 38.9888C18.4838 39.0138 19.3588 39.985 20.4363 39.985H20.5312C21.61 39.985 22.4788 39.0138 22.5 38.9888C27.58 33.1488 35 23.5175 35 15.2413C35 6.96875 29.5837 -0.0137501 20.1425 -0.0137501ZM20.6437 37.3113C20.6 37.355 20.5363 37.4038 20.48 37.445C20.4225 37.405 20.36 37.355 20.3137 37.3113L19.66 36.5588C14.5275 30.6713 7.49875 22.6075 7.49875 15.24C7.49875 8.325 13.2888 2.48375 20.1413 2.48375C28.6775 2.48375 32.4988 8.89 32.4988 15.24C32.4988 20.8325 28.51 28.26 20.6437 37.3113ZM20.0437 7.555C15.9025 7.555 12.5437 10.9125 12.5437 15.055C12.5437 19.1975 15.9025 22.555 20.0437 22.555C24.185 22.555 27.5438 19.1963 27.5438 15.055C27.5438 10.9138 24.1862 7.555 20.0437 7.555ZM20.0437 20.055C17.2863 20.055 14.9862 17.7575 14.9862 15C14.9862 12.2425 17.2288 10 19.9862 10C22.745 10 24.9862 12.2425 24.9862 15C24.9875 17.7575 22.8025 20.055 20.0437 20.055Z" fill="white"/>
</g>
<defs>
<clipPath id="clip0_5_7">
<rect width="40" height="40" fill="white"/>
</clipPath>
</defs>
</svg>
