<svg width="41" height="42" viewBox="0 0 41 42" fill="none" xmlns="http://www.w3.org/2000/svg">
<path fill-rule="evenodd" clip-rule="evenodd" d="M41 21C41 32.5979 31.8217 42 20.5 42C9.17816 42 0 32.5979 0 21C0 9.40201 9.17816 0 20.5 0C31.8217 0 41 9.40201 41 21ZM26.65 14.7C26.65 18.1795 23.8966 21 20.5 21C17.1034 21 14.35 18.1795 14.35 14.7C14.35 11.2206 17.1034 8.4 20.5 8.4C23.8966 8.4 26.65 11.2206 26.65 14.7ZM20.5 38.85C24.1572 38.85 27.5514 37.6958 30.3541 35.7235C31.5921 34.8524 32.121 33.193 31.4015 31.8427C29.9095 29.0436 26.8349 27.3 20.4998 27.3C14.1649 27.3 11.0904 29.0434 9.59839 31.8427C8.87865 33.193 9.40765 34.8522 10.6456 35.7233C13.4484 37.6956 16.8426 38.85 20.5 38.85Z" fill="#FF385C"/>
</svg>
